<?xml version="1.0" encoding="UTF-8"?>
<svg width="16px" height="20px" viewBox="0 0 16 20" version="1.1" xmlns="http://www.w3.org/2000/svg" xmlns:xlink="http://www.w3.org/1999/xlink">
    <!-- Generator: Sketch 52.6 (67491) - http://www.bohemiancoding.com/sketch -->
    <title>diary copy</title>
    <desc>Created with Sketch.</desc>
    <g id="Symbols" stroke="none" stroke-width="1" fill="none" fill-rule="evenodd">
        <g id="Request" transform="translate(0.000000, -2.000000)" fill="#545454" fill-rule="nonzero">
            <g id="Group-4">
                <g id="diary-copy" transform="translate(0.000000, 2.000000)">
                    <path d="M13,0 L1,0 C0.44771525,0 0,0.44771525 0,1 L0,17 C0,17.5522847 0.44771525,18 1,18 L2,18 L2,19 C2,19.5522847 2.44771525,20 3,20 C3.55228475,20 4,19.5522847 4,19 L4,18 L13,18 C14.6568542,18 16,16.6568542 16,15 L16,3 C16,1.34314575 14.6568542,-4.4408921e-16 13,0 Z M10,16 L2,16 L2,2 L10,2 L10,16 Z M14,15 C14,15.5522847 13.5522847,16 13,16 L12,16 L12,2 L13,2 C13.5522847,2 14,2.44771525 14,3 L14,15 Z" id="Shape"></path>
                </g>
            </g>
        </g>
    </g>
</svg>