<?xml version="1.0" encoding="UTF-8"?>
<svg width="20px" height="20px" viewBox="0 0 20 20" version="1.1" xmlns="http://www.w3.org/2000/svg" xmlns:xlink="http://www.w3.org/1999/xlink">
    <!-- Generator: Sketch 52.6 (67491) - http://www.bohemiancoding.com/sketch -->
    <title>Shape Copy 2</title>
    <desc>Created with Sketch.</desc>
    <g id="Symbols" stroke="none" stroke-width="1" fill="none" fill-rule="evenodd">
        <g id="History" transform="translate(0.000000, -2.000000)" fill="#545454" fill-rule="nonzero">
            <g id="Group-2">
                <path d="M10,2 C7.43638565,2.00731219 4.97349028,2.99891396 3.12,4.77 L3.12,3 C3.12,2.44771525 2.67228475,2 2.12,2 C1.56771525,2 1.12,2.44771525 1.12,3 L1.12,7.5 C1.12,8.05228475 1.56771525,8.5 2.12,8.5 L6.62,8.5 C7.17228475,8.5 7.62,8.05228475 7.62,7.5 C7.62,6.94771525 7.17228475,6.5 6.62,6.5 L4.22,6.5 C6.87217657,3.72846915 11.1183628,3.22963525 14.3406536,5.31104482 C17.5629444,7.39245439 18.8542391,11.468174 17.4184148,15.0253965 C15.9825904,18.582619 12.2238429,20.6199579 8.45955631,19.8813308 C4.69526969,19.1427037 1.98512073,15.8360399 2,12 C2,11.4477153 1.55228475,11 1,11 C0.44771525,11 0,11.4477153 0,12 C3.99680289e-15,17.5228475 4.4771525,22 10,22 C15.5228475,22 20,17.5228475 20,12 C20,6.4771525 15.5228475,2 10,2 Z M10,8 C9.44771525,8 9,8.44771525 9,9 L9,12 C9,12.5522847 9.44771525,13 10,13 L12,13 C12.5522847,13 13,12.5522847 13,12 C13,11.4477153 12.5522847,11 12,11 L11,11 L11,9 C11,8.44771525 10.5522847,8 10,8 Z" id="Shape-Copy-2"></path>
            </g>
        </g>
    </g>
</svg>