<?xml version="1.0" encoding="UTF-8"?>
<svg width="17px" height="20px" viewBox="0 0 17 20" version="1.1" xmlns="http://www.w3.org/2000/svg" xmlns:xlink="http://www.w3.org/1999/xlink">
    <!-- Generator: Sketch 52.6 (67491) - http://www.bohemiancoding.com/sketch -->
    <title>home-alt</title>
    <desc>Created with Sketch.</desc>
    <g id="Symbols" stroke="none" stroke-width="1" fill="none" fill-rule="evenodd">
        <g id="Home" transform="translate(0.000000, -1.000000)" fill="#545454" fill-rule="nonzero">
            <g id="Group-Copy">
                <g id="home-alt" transform="translate(0.000000, 1.000000)">
                    <path d="M16.0555556,6.61111111 L10.3888889,1.64333333 C9.31335308,0.681344861 7.68664692,0.681344861 6.61111111,1.64333333 L0.944444444,6.61111111 C0.337586323,7.15385522 -0.00647178369,7.93142654 2.09698253e-16,8.74555556 L2.09698253e-16,17 C6.29108311e-16,18.5648068 1.26852654,19.8333333 2.83333333,19.8333333 L14.1666667,19.8333333 C15.7314735,19.8333333 17,18.5648068 17,17 L17,8.73611111 C17.0037578,7.92526813 16.6599365,7.15167019 16.0555556,6.61111111 Z M10.3888889,17.9444444 L6.61111111,17.9444444 L6.61111111,13.2222222 C6.61111111,12.70062 7.03395329,12.2777778 7.55555556,12.2777778 L9.44444444,12.2777778 C9.96604671,12.2777778 10.3888889,12.70062 10.3888889,13.2222222 L10.3888889,17.9444444 Z M15.1111111,17 C15.1111111,17.5216023 14.6882689,17.9444444 14.1666667,17.9444444 L12.2777778,17.9444444 L12.2777778,13.2222222 C12.2777778,11.6574154 11.0092512,10.3888889 9.44444444,10.3888889 L7.55555556,10.3888889 C5.99074876,10.3888889 4.72222222,11.6574154 4.72222222,13.2222222 L4.72222222,17.9444444 L2.83333333,17.9444444 C2.31173107,17.9444444 1.88888889,17.5216023 1.88888889,17 L1.88888889,8.73611111 C1.8892324,8.46484102 2.00620376,8.20681596 2.21,8.02777778 L7.87666667,3.06944444 C8.23320036,2.75622335 8.76679964,2.75622335 9.12333333,3.06944444 L14.79,8.02777778 C14.9937962,8.20681596 15.1107676,8.46484102 15.1111111,8.73611111 L15.1111111,17 Z" id="Shape"></path>
                </g>
            </g>
        </g>
    </g>
</svg>