<?xml version="1.0" encoding="UTF-8"?>
<svg width="20px" height="20px" viewBox="0 0 20 20" version="1.1" xmlns="http://www.w3.org/2000/svg" xmlns:xlink="http://www.w3.org/1999/xlink">
    <!-- Generator: Sketch 52.6 (67491) - http://www.bohemiancoding.com/sketch -->
    <title>Shape Copy</title>
    <desc>Created with Sketch.</desc>
    <g id="Symbols" stroke="none" stroke-width="1" fill="none" fill-rule="evenodd">
        <g id="Status" transform="translate(0.000000, -2.000000)" fill="#545454" fill-rule="nonzero">
            <g id="Group-3">
                <path d="M10,2 C4.4771525,2 6.66133815e-16,6.4771525 0,12 C-6.66133815e-16,17.5228475 4.4771525,22 10,22 C15.5228475,22 20,17.5228475 20,12 C20,9.3478351 18.9464316,6.80429597 17.0710678,4.92893219 C15.195704,3.0535684 12.6521649,2 10,2 Z M10,20 C5.581722,20 2,16.418278 2,12 C2,7.581722 5.581722,4 10,4 C14.418278,4 18,7.581722 18,12 C18,14.1217319 17.1571453,16.1565632 15.6568542,17.6568542 C14.1565632,19.1571453 12.1217319,20 10,20 Z M10,6 C9.44771525,6 9,6.44771525 9,7 L9,11.42 L6.9,12.63 C6.50378734,12.8545181 6.3093119,13.318381 6.42694536,13.7583301 C6.54457881,14.1982792 6.94460708,14.5031839 7.4,14.5 C7.57517638,14.5012098 7.74759709,14.4563804 7.9,14.37 L10.5,12.87 L10.59,12.78 L10.75,12.65 C10.7891007,12.6004957 10.8226358,12.5468396 10.85,12.49 C10.88259,12.4363147 10.9094061,12.3793306 10.93,12.32 C10.9571999,12.2564177 10.9740788,12.188902 10.98,12.12 C10.98,12.12 11,12 11,12 L11,7 C11,6.44771525 10.5522847,6 10,6 Z" id="Shape-Copy"></path>
            </g>
        </g>
    </g>
</svg>