<?xml version="1.0" encoding="UTF-8"?>
<svg width="20px" height="20px" viewBox="0 0 20 20" version="1.1" xmlns="http://www.w3.org/2000/svg" xmlns:xlink="http://www.w3.org/1999/xlink">
    <!-- Generator: Sketch 52.6 (67491) - http://www.bohemiancoding.com/sketch -->
    <title>Shape Copy 3</title>
    <desc>Created with Sketch.</desc>
    <g id="Symbols" stroke="none" stroke-width="1" fill="none" fill-rule="evenodd">
        <g id="Statics" transform="translate(0.000000, -2.000000)" fill="#545454" fill-rule="nonzero">
            <g id="Group">
                <path d="M4.54545455,12.9090909 L0.909090909,12.9090909 C0.407013864,12.9090909 0,13.3161048 0,13.8181818 L0,21.0909091 C0,21.5929861 0.407013864,22 0.909090909,22 L4.54545455,22 C5.04753159,22 5.45454545,21.5929861 5.45454545,21.0909091 L5.45454545,13.8181818 C5.45454545,13.3161048 5.04753159,12.9090909 4.54545455,12.9090909 Z M3.63636364,20.1818182 L1.81818182,20.1818182 L1.81818182,14.7272727 L3.63636364,14.7272727 L3.63636364,20.1818182 Z M19.0909091,9.27272727 L15.4545455,9.27272727 C14.9524684,9.27272727 14.5454545,9.67974114 14.5454545,10.1818182 L14.5454545,21.0909091 C14.5454545,21.5929861 14.9524684,22 15.4545455,22 L19.0909091,22 C19.5929861,22 20,21.5929861 20,21.0909091 L20,10.1818182 C20,9.67974114 19.5929861,9.27272727 19.0909091,9.27272727 Z M18.1818182,20.1818182 L16.3636364,20.1818182 L16.3636364,11.0909091 L18.1818182,11.0909091 L18.1818182,20.1818182 Z M11.8181818,2 L8.18181818,2 C7.67974114,2 7.27272727,2.40701386 7.27272727,2.90909091 L7.27272727,21.0909091 C7.27272727,21.5929861 7.67974114,22 8.18181818,22 L11.8181818,22 C12.3202589,22 12.7272727,21.5929861 12.7272727,21.0909091 L12.7272727,2.90909091 C12.7272727,2.40701386 12.3202589,2 11.8181818,2 Z M10.9090909,20.1818182 L9.09090909,20.1818182 L9.09090909,3.81818182 L10.9090909,3.81818182 L10.9090909,20.1818182 Z" id="Shape-Copy-3"></path>
            </g>
        </g>
    </g>
</svg>