<?xml version="1.0" encoding="UTF-8"?>
<svg width="22px" height="20px" viewBox="0 0 22 20" version="1.1" xmlns="http://www.w3.org/2000/svg" xmlns:xlink="http://www.w3.org/1999/xlink">
    <!-- Generator: Sketch 52.6 (67491) - http://www.bohemiancoding.com/sketch -->
    <title>truck copy</title>
    <desc>Created with Sketch.</desc>
    <g id="Symbols" stroke="none" stroke-width="1" fill="none" fill-rule="evenodd">
        <g id="Transporters" transform="translate(0.000000, -2.000000)" fill="#545454" fill-rule="nonzero">
            <g id="Group-5">
                <g id="truck-copy" transform="translate(0.000000, 2.000000)">
                    <path d="M0,10.5 L0,15.5 C0,16.0522847 0.44771525,16.5 1,16.5 L2,16.5 C2,18.1568542 3.34314575,19.5 5,19.5 C6.65685425,19.5 8,18.1568542 8,16.5 L14,16.5 C14,18.1568542 15.3431458,19.5 17,19.5 C18.6568542,19.5 20,18.1568542 20,16.5 L21,16.5 C21.5522847,16.5 22,16.0522847 22,15.5 L22,3.5 C22,1.84314575 20.6568542,0.5 19,0.5 L10,0.5 C8.34314575,0.5 7,1.84314575 7,3.5 L7,5.5 L5,5.5 C4.05572809,5.5 3.16656315,5.94458247 2.6,6.7 L0.2,9.9 C0.170751356,9.94346696 0.147224385,9.99052091 0.13,10.04 L0.07,10.15 C0.0258659999,10.2615247 0.00215504524,10.3800795 0,10.5 Z M16,16.5 C16,15.9477153 16.4477153,15.5 17,15.5 C17.5522847,15.5 18,15.9477153 18,16.5 C18,17.0522847 17.5522847,17.5 17,17.5 C16.4477153,17.5 16,17.0522847 16,16.5 Z M9,3.5 C9,2.94771525 9.44771525,2.5 10,2.5 L19,2.5 C19.5522847,2.5 20,2.94771525 20,3.5 L20,14.5 L19.22,14.5 C18.6514266,13.8744573 17.845328,13.5178206 17,13.5178206 C16.154672,13.5178206 15.3485734,13.8744573 14.78,14.5 L9,14.5 L9,3.5 Z M7,9.5 L3,9.5 L4.2,7.9 C4.38885438,7.64819416 4.6852427,7.5 5,7.5 L7,7.5 L7,9.5 Z M4,16.5 C4,15.9477153 4.44771525,15.5 5,15.5 C5.55228475,15.5 6,15.9477153 6,16.5 C6,17.0522847 5.55228475,17.5 5,17.5 C4.44771525,17.5 4,17.0522847 4,16.5 Z M2,11.5 L7,11.5 L7,14.28 C5.77156381,13.1821217 3.88761649,13.2803369 2.78,14.5 L2,14.5 L2,11.5 Z" id="Shape"></path>
                </g>
            </g>
        </g>
    </g>
</svg>